<svg id="eRZqgUtmcsf1" xmlns="http://www.w3.org/2000/svg" xmlns:xlink="http://www.w3.org/1999/xlink" viewBox="0 0 600 600" shape-rendering="geometricPrecision" text-rendering="geometricPrecision"><g id="eRZqgUtmcsf2"><ellipse id="eRZqgUtmcsf3" rx="25.263728" ry="25.000038" transform="matrix(1.979122 0 0 1.999997 300 300.00001)" paint-order="stroke markers fill" fill="none" stroke="rgb(0,0,0)" stroke-width="0.25" stroke-linecap="round" stroke-miterlimit="1"/><path id="eRZqgUtmcsf4" d="M337.07246,266.44899C327.92376,274.53116,314.70301,279.60817,300,279.60817C285.297,279.60817,272.07624,274.53116,262.92754,266.44899" paint-order="stroke markers fill" fill="none" stroke="rgb(0,0,0)" stroke-width="0.5" stroke-linecap="round" stroke-miterlimit="1"/><path id="eRZqgUtmcsf5" d="M262.73155,333.33334C271.88689,325.15001,285.19166,320,300,320C314.80833,320,328.1131,325.15001,337.26845,333.33334" paint-order="stroke markers fill" fill="none" stroke="rgb(0,0,0)" stroke-width="0.5" stroke-linecap="round" stroke-miterlimit="1"/><line id="eRZqgUtmcsf6" x1="-30" y1="0" x2="30" y2="0" transform="matrix(1.666667 0 0 -1 300 300.000012)" fill="none" stroke="rgb(0,0,0)" stroke-width="0.5" stroke-miterlimit="1"/></g><path id="eRZqgUtmcsf7" d="M300,350C313.527392,350.000008,325.000008,327.614249,325.000008,300.000009C325.000008,272.385769,313.527392,250,300,250" transform="matrix(-1 0 0 1 600 0)" paint-order="stroke markers fill" fill="none" stroke="rgb(0,0,0)" stroke-width="0.5" stroke-linecap="round" stroke-miterlimit="1"/><path id="eRZqgUtmcsf8" d="M300,350C299.813515,350.000006,300.000005,327.614246,300.000005,300.000006C300.000005,272.385766,299.813515,250,300,250" transform="matrix(-1 0 0 1 600 0)" paint-order="stroke markers fill" fill="none" stroke="rgb(0,0,0)" stroke-width="0.5" stroke-linecap="round" stroke-miterlimit="1"/><path id="eRZqgUtmcsf9" d="M300,350C286.099637,350.000003,275.000003,327.614243,275.000003,300.000003C275.000003,272.385763,286.099637,250,300,250" transform="matrix(-1 0 0 1 600 0)" paint-order="stroke markers fill" fill="none" stroke="rgb(0,0,0)" stroke-width="0.5" stroke-linecap="round" stroke-miterlimit="1"/><path id="eRZqgUtmcsf10" d="M300,350C272.38576,350,250,327.61424,250,300C250,272.38576,272.38576,250,300,250" transform="matrix(-1 0 0 1 600 0)" paint-order="stroke markers fill" fill="none" stroke="rgb(0,0,0)" stroke-width="0.5" stroke-linecap="round" stroke-miterlimit="1"/></svg>